<svg width="224" height="35" viewBox="0 0 224 35" fill="none" xmlns="http://www.w3.org/2000/svg">
<path d="M0.942621 1.81273C2.11662 1.59996 3.29062 1.38719 4.50019 1.16797C6.35044 1.48713 6.35044 1.48713 8.23807 1.81273C9.02079 2.94848 9.80352 4.08423 10.61 5.25439C11.2393 6.73448 11.8687 8.21457 12.5171 9.73951C13.4829 11.9466 13.4829 11.9466 14.4681 14.1983C15.0049 15.4817 15.5417 16.765 16.0947 18.0872C16.6503 19.1983 17.2059 20.3095 17.7783 21.4543C18.4149 20.3547 19.0515 19.2552 19.7073 18.1223C20.1125 17.4133 20.5176 16.7044 20.9349 15.974C21.3748 15.1898 21.8146 14.4056 22.2678 13.5977C22.7307 12.7441 23.1937 11.8904 23.6707 11.011C24.1221 10.1631 24.5735 9.31529 25.0386 8.44177C25.791 6.99495 26.5433 5.54814 27.3185 4.05748C27.5037 3.50191 27.6888 2.94633 27.8796 2.37392C29.0758 2.20247 30.272 2.03103 31.5044 1.85438C33.3214 2.11155 33.3214 2.11155 35.1751 2.37392C35.4807 3.29192 35.7864 4.20993 36.1013 5.15575C36.1024 6.42533 36.1034 7.6949 36.1046 9.00295C36.1111 11.0538 36.1111 11.0538 36.1177 13.1461C36.0678 15.3141 36.0678 15.3141 36.0169 17.526C36.0357 18.9714 36.0545 20.4167 36.0739 21.9059C36.0608 23.2731 36.0478 24.6404 36.0344 26.049C36.0203 27.3186 36.0062 28.5882 35.9917 29.8962C35.7222 30.8143 35.4527 31.7323 35.1751 32.6781C34.1538 32.9009 33.1325 33.1237 32.0802 33.3533C31.0644 33.1304 30.0486 32.9076 29.002 32.6781C28.6429 30.612 28.6429 30.612 28.2764 28.5042C28.271 27.6434 28.2656 26.7825 28.26 25.8956C28.2974 24.5305 28.2974 24.5305 28.3356 23.1379C28.3367 22.2278 28.3378 21.3178 28.3389 20.3802C28.3414 19.5193 28.344 18.6585 28.3466 17.7715C28.3777 16.3942 28.4088 15.0168 28.4408 13.5977C27.8158 14.7143 27.8158 14.7143 27.1782 15.8534C26.6689 16.7757 26.1596 17.6981 25.6349 18.6484C24.8941 20.072 24.1534 21.4957 23.3901 22.9625C22.6494 24.3167 21.9086 25.6709 21.1454 27.0662C19.7564 28.7329 19.7564 28.7329 18.3394 30.4333C17.5987 30.0629 16.8579 29.6926 16.0947 29.3109C15.5275 28.5355 14.9604 27.76 14.3761 26.961C13.8321 26.0697 13.2881 25.1785 12.7276 24.2603C12.172 22.9639 11.6164 21.6676 11.044 20.3319C10.4537 19.2324 9.86341 18.1328 9.25522 16.9999C8.73437 16.0623 8.21351 15.1248 7.67688 14.1589C7.70798 15.5362 7.73909 16.9136 7.77114 18.3327C7.77367 19.1936 7.7762 20.0544 7.77881 20.9414C7.78044 22.3064 7.78044 22.3064 7.7821 23.6991C7.80706 24.6091 7.83201 25.5192 7.85773 26.4568C7.8523 27.3176 7.84688 28.1785 7.84129 29.0654C7.60184 30.4428 7.36239 31.8202 7.11569 33.2393C6.09989 33.4671 5.08409 33.695 4.03751 33.9298C3.0162 33.7019 1.99488 33.474 0.942621 33.2393C0.538417 31.8113 0.538417 31.8113 0.126048 30.3544C0.111942 29.0378 0.0978352 27.7212 0.0833014 26.3647C0.07028 24.9468 0.0572587 23.529 0.0438428 22.0681C0.0626514 20.5692 0.08146 19.0703 0.100838 17.526C0.0675618 16.0271 0.0342851 14.5282 0 12.9839C0.00434044 11.566 0.00868088 10.1481 0.0131528 8.68729C0.014238 7.37069 0.0153231 6.05409 0.0164411 4.69759C0.32208 3.74559 0.62772 2.79358 0.942621 1.81273Z" fill="url(#paint0_linear_1_1920)"/>
<path d="M86.8049 1.25205C87.7268 1.05963 88.6487 0.867203 89.5985 0.668945C90.9936 0.957585 90.9936 0.957585 92.4168 1.25205C92.6564 2.20406 92.8961 3.15606 93.143 4.13691C93.1493 5.45351 93.1556 6.77011 93.1621 8.12661C93.1694 9.54449 93.1766 10.9624 93.1841 12.4232C93.1624 13.9221 93.1407 15.421 93.1183 16.9653C93.1508 19.2137 93.1508 19.2137 93.1841 21.5074C93.1768 22.9253 93.1696 24.3432 93.1621 25.804C93.1558 27.1206 93.1495 28.4372 93.143 29.7937C92.9033 30.7457 92.6637 31.6977 92.4168 32.6786C91.4871 32.8435 90.5573 33.0085 89.5994 33.1784C88.2161 32.931 88.2161 32.931 86.8049 32.6786C86.6197 32.3082 86.4345 31.9378 86.2437 31.5562C85.1326 32.0771 85.1326 32.0771 83.999 32.6084C83.073 33.002 82.1471 33.3955 81.193 33.801C79.5263 33.801 77.8596 33.801 76.1424 33.801C75.0312 33.0602 73.9201 32.3194 72.7752 31.5562C72.1734 30.9312 71.5715 30.3062 70.9514 29.6622C70.4421 28.9909 69.9328 28.3196 69.4081 27.6279C69.0377 26.5167 68.6673 25.4056 68.2857 24.2608C68.2279 23.2538 68.17 22.2468 68.1104 21.2093C68.1682 20.1792 68.2261 19.149 68.2857 18.0877C69.1191 16.1432 69.1191 16.1432 69.9693 14.1594C70.7101 13.4418 71.4508 12.7241 72.214 11.9848C72.9548 11.4061 73.6956 10.8273 74.4588 10.2311C75.0144 10.0459 75.5699 9.86068 76.1424 9.66988C77.1493 9.63515 78.1563 9.60043 79.1938 9.56465C80.2239 9.59938 81.2541 9.6341 82.3154 9.66988C83.0562 10.0403 83.797 10.4106 84.5602 10.7923C84.7454 11.1626 84.9306 11.533 85.1214 11.9146C85.6769 12.0998 86.2325 12.285 86.8049 12.4758C86.7398 11.6656 86.6747 10.8554 86.6076 10.0206C86.557 8.97891 86.5064 7.93721 86.4542 6.86394C86.3891 5.82223 86.324 4.78053 86.2569 3.70725C86.4377 2.89704 86.6186 2.08682 86.8049 1.25205Z" fill="url(#paint1_linear_1_1920)"/>
<path d="M150.219 9.66959C152.372 9.60015 152.372 9.60015 154.569 9.5293C156.86 9.59874 156.86 9.59874 159.198 9.66959C161.143 10.503 161.143 10.503 163.127 11.3532C164.516 12.7421 164.516 12.7421 165.933 14.1591C166.21 14.4369 166.21 14.4369 166.494 14.7203C166.564 16.0752 166.634 17.4302 166.706 18.8262C166.725 19.6599 166.743 20.4936 166.762 21.3526C166.778 22.2312 166.793 23.1098 166.809 24.015C166.845 24.8957 166.88 25.7765 166.916 26.6839C166.934 27.9334 166.934 27.9334 166.952 29.2081C166.801 30.5385 166.65 31.8688 166.494 33.2395C165.012 33.2395 163.531 33.2395 162.004 33.2395C161.726 31.8506 161.726 31.8506 161.443 30.4336C161.073 30.4336 160.702 30.4336 160.321 30.4336C159.95 31.1743 159.58 31.9151 159.198 32.6783C157.902 33.0487 156.606 33.4191 155.27 33.8007C153.603 33.8007 151.937 33.8007 150.219 33.8007C148.923 32.8747 147.627 31.9488 146.291 30.9947C145.735 30.0688 145.18 29.1428 144.607 28.1888C144.607 26.5221 144.607 24.8553 144.607 23.1381C145.533 22.2121 146.459 21.2862 147.413 20.3322C147.784 19.9618 148.154 19.5914 148.536 19.2098C149.462 19.0246 150.388 18.8394 151.342 18.6486C153.651 18.6312 153.651 18.6312 156.007 18.6135C157.43 18.6251 158.854 18.6367 160.321 18.6486C160.135 17.5375 159.95 16.4263 159.76 15.2815C159.019 15.0963 158.278 14.9111 157.515 14.7203C155.674 14.6335 155.674 14.6335 153.797 14.5449C152.616 14.6028 151.436 14.6607 150.219 14.7203C149.849 15.4611 149.479 16.2018 149.097 16.965C148.356 16.5947 147.615 16.2243 146.852 15.8427C146.482 15.4723 146.111 15.1019 145.73 14.7203C145.915 13.7943 146.1 12.8684 146.291 11.9143C147.032 11.3588 147.773 10.8032 148.536 10.2308C149.091 10.0456 149.647 9.8604 150.219 9.66959Z" fill="url(#paint2_linear_1_1920)"/>
<path d="M50.3273 9.1084C51.8088 9.1084 53.2904 9.1084 54.8168 9.1084C56.2983 9.66397 57.7799 10.2196 59.3063 10.792C60.0239 11.5096 60.7415 12.2272 61.4809 12.9666C62.0596 13.7305 62.6384 14.4944 63.2346 15.2815C63.605 16.2074 63.9754 17.1334 64.357 18.0874C64.357 19.7541 64.357 21.4209 64.357 23.1381C62.4125 23.3822 62.4125 23.3822 60.4287 23.6313C59.6185 23.6151 58.8082 23.5988 57.9735 23.582C57.117 23.5397 56.2605 23.4974 55.378 23.4538C54.0932 23.4196 54.0932 23.4196 52.7825 23.3847C51.5672 23.3505 51.5672 23.3505 50.3273 23.3157C49.0309 23.2571 47.7346 23.1985 46.399 23.1381C47.1397 24.4344 47.8805 25.7308 48.6437 27.0664C49.3845 27.4368 50.1253 27.8072 50.8885 28.1888C52.5552 28.1888 54.2219 28.1888 55.9392 28.1888C57.0503 27.6332 58.1615 27.0776 59.3063 26.5052C60.6952 27.0608 60.6952 27.0608 62.1122 27.6276C62.39 28.7388 62.39 28.7388 62.6734 29.8724C61.8979 30.4627 61.1224 31.053 60.3235 31.6611C59.4322 32.182 58.541 32.7028 57.6227 33.2395C56.5116 33.5173 56.5116 33.5173 55.378 33.8007C54.4173 33.8817 53.4566 33.9627 52.4668 34.0462C51.3904 33.9652 50.314 33.8841 49.2049 33.8007C48.2905 33.303 47.3761 32.8053 46.434 32.2925C45.6817 31.679 44.9294 31.0656 44.1542 30.4335C43.4135 29.5076 42.6727 28.5816 41.9095 27.6276C41.3539 26.3313 40.7983 25.0349 40.2259 23.6993C40.1333 22.7849 40.0407 21.8705 39.9453 20.9284C40.0379 19.9909 40.1305 19.0534 40.2259 18.0874C40.6079 17.3003 40.9898 16.5133 41.3834 15.7024C41.9274 15.0079 42.4714 14.3134 43.0318 13.5979C43.9867 12.6604 43.9867 12.6604 44.9609 11.7039C45.6207 11.2178 46.2804 10.7316 46.9602 10.2308C48.0713 9.86039 49.1825 9.49001 50.3273 9.1084Z" fill="url(#paint3_linear_1_1920)"/>
<path d="M199.603 0.690524C200.626 0.462651 201.649 0.234778 202.703 0C204.224 0.34181 204.224 0.34181 205.776 0.690524C205.975 1.98687 206.174 3.28321 206.379 4.61884C206.359 5.42906 206.339 6.23927 206.319 7.07404C206.267 7.93055 206.215 8.78707 206.162 9.66953C206.134 10.526 206.106 11.3826 206.078 12.265C206.05 13.0752 206.022 13.8855 205.993 14.7202C205.922 16.0166 205.85 17.3129 205.776 18.6485C206.517 18.2782 207.258 17.9078 208.021 17.5262C208.635 16.8317 209.248 16.1372 209.88 15.4217C210.563 14.6346 211.246 13.8476 211.949 13.0367C212.551 12.3885 213.153 11.7403 213.773 11.0725C214.815 10.378 214.815 10.378 215.878 9.66953C217.527 9.56536 217.527 9.56536 219.21 9.45909C220.147 9.52854 221.085 9.59798 222.051 9.66953C221.495 10.5955 220.94 11.5215 220.367 12.4755C219.407 13.3783 218.446 14.2811 217.456 15.2113C216.119 16.6349 216.119 16.6349 214.755 18.0874C214.755 19.3837 214.755 20.68 214.755 22.0157C216.144 23.4046 216.144 23.4046 217.561 24.8216C218.337 25.7476 219.112 26.6735 219.911 27.6276C220.617 28.5535 221.323 29.4795 222.051 30.4335C222.421 31.3595 222.792 32.2854 223.173 33.2394C222.085 33.2973 220.997 33.3552 219.876 33.4148C218.175 33.328 218.175 33.328 216.439 33.2394C216.069 32.3135 215.698 31.3875 215.317 30.4335C214.483 30.1557 214.483 30.1557 213.633 29.8723C212.892 28.8537 212.151 27.8352 211.388 26.7858C210.647 25.7672 209.907 24.7487 209.143 23.6992C208.31 23.4214 208.31 23.4214 207.46 23.138C207.09 23.5084 206.719 23.8788 206.338 24.2604C206.349 25.7651 206.361 27.2698 206.373 28.8201C206.077 31.0077 206.077 31.0077 205.776 33.2394C204.255 33.5964 204.255 33.5964 202.704 33.9606C201.681 33.7226 200.657 33.4846 199.603 33.2394C199.208 31.7604 199.208 31.7604 198.804 30.2515C198.794 28.2061 198.794 28.2061 198.783 26.1194C198.775 24.6508 198.767 23.1823 198.759 21.6693C198.783 20.1169 198.807 18.5645 198.832 16.965C198.796 14.6363 198.796 14.6363 198.759 12.2606C198.767 10.7921 198.775 9.32361 198.783 7.8106C198.79 6.44698 198.797 5.08336 198.804 3.67841C199.068 2.69241 199.332 1.70641 199.603 0.690524Z" fill="url(#paint4_linear_1_1920)"/>
<path d="M96.3449 1.81315C97.1609 1.57352 97.9769 1.33389 98.8177 1.087C99.9462 1.08067 101.075 1.07434 102.237 1.06782C103.453 1.06059 104.668 1.05335 105.92 1.0459C107.205 1.0676 108.49 1.0893 109.813 1.11166C111.098 1.08996 112.383 1.06826 113.707 1.0459C114.922 1.05313 116.137 1.06037 117.389 1.06782C119.082 1.07731 119.082 1.07731 120.809 1.087C122.033 1.44644 122.033 1.44644 123.282 1.81315C123.507 2.76389 123.733 3.71462 123.965 4.69417C123.74 5.59535 123.514 6.49654 123.282 7.42503C122.556 7.45614 121.829 7.48724 121.081 7.51929C119.678 7.24693 119.678 7.24693 118.247 6.96906C117.323 6.91843 116.399 6.86779 115.447 6.81561C114.325 7.11727 114.325 7.11727 113.181 7.42503C112.938 8.21644 112.696 9.00784 112.446 9.82323C112.435 10.8953 112.423 11.9674 112.411 13.072C112.472 14.2367 112.532 15.4014 112.594 16.6013C112.707 17.8326 112.819 19.0638 112.935 20.3324C113.032 21.5636 113.13 22.7948 113.23 24.0634C113.328 25.8104 113.328 25.8104 113.428 27.5927C113.525 28.6742 113.622 29.7557 113.721 30.87C113.543 31.652 113.364 32.434 113.181 33.2397C112.162 33.4726 111.143 33.7056 110.093 33.9456C109.075 33.7126 108.056 33.4797 107.007 33.2397C106.832 32.4577 106.657 31.6757 106.476 30.87C106.576 29.7885 106.676 28.707 106.78 27.5927C106.848 26.428 106.916 25.2634 106.986 24.0634C107.085 22.8321 107.185 21.6009 107.288 20.3324C107.405 19.1011 107.522 17.8699 107.643 16.6013C107.737 14.8543 107.737 14.8543 107.832 13.072C107.817 11.9999 107.803 10.9278 107.788 9.82323C107.53 9.03183 107.273 8.24042 107.007 7.42503C106.218 7.22392 105.428 7.02282 104.614 6.81561C103.151 6.89157 103.151 6.89157 101.659 6.96906C100.672 7.15064 99.6845 7.33221 98.6675 7.51929C97.5178 7.47263 97.5178 7.47263 96.3449 7.42503C96.1138 6.52385 95.8827 5.62266 95.6445 4.69417C95.8757 3.74343 96.1068 2.7927 96.3449 1.81315Z" fill="url(#paint5_linear_1_1920)"/>
<path d="M181.645 9.10799C182.606 9.05012 183.566 8.99224 184.556 8.93262C185.633 8.99049 186.709 9.04836 187.818 9.10799C189.3 9.84876 190.781 10.5895 192.307 11.3527C193.048 11.9083 193.789 12.4639 194.552 13.0363C194.367 13.7771 194.182 14.5178 193.991 15.2811C193.435 15.8366 192.88 16.3922 192.307 16.9646C190.919 16.6868 190.919 16.6868 189.502 16.4034C189.502 16.033 189.502 15.6627 189.502 15.2811C188.113 15.0033 188.113 15.0033 186.696 14.7199C185.214 14.7199 183.733 14.7199 182.206 14.7199C181.095 15.831 179.984 16.9422 178.839 18.087C178.746 19.0361 178.654 19.9852 178.558 20.9631C178.651 21.8659 178.744 22.7687 178.839 23.6989C179.209 24.4396 179.58 25.1804 179.961 25.9436C179.961 26.4992 179.961 27.0548 179.961 27.6272C180.887 27.8124 181.813 27.9976 182.767 28.1884C184.249 28.1884 185.73 28.1884 187.257 28.1884C188.368 27.4476 189.479 26.7068 190.624 25.9436C191.365 26.1288 192.105 26.314 192.869 26.5048C193.609 27.2456 194.35 27.9864 195.113 28.7496C194.442 29.2704 193.771 29.7913 193.079 30.3279C192.269 30.9182 191.459 31.5085 190.624 32.1167C189.513 32.6723 188.402 33.2279 187.257 33.8003C186.377 33.8929 185.497 33.9855 184.591 34.0809C183.619 33.9883 182.647 33.8957 181.645 33.8003C180.684 33.4299 179.724 33.0595 178.734 32.6779C177.843 32.1223 176.951 31.5667 176.033 30.9943C175.281 30.2304 174.528 29.4665 173.753 28.6794C173.209 27.9618 172.665 27.2442 172.105 26.5048C171.92 25.9492 171.734 25.3937 171.544 24.8213C171.486 23.9532 171.428 23.0851 171.368 22.1907C171.426 21.2069 171.484 20.223 171.544 19.2094C172.284 17.7278 173.025 16.2463 173.788 14.7199C174.714 13.7939 175.64 12.8679 176.594 11.9139C177.705 11.1732 178.817 10.4324 179.961 9.66918C180.517 9.48398 181.073 9.29879 181.645 9.10799Z" fill="url(#paint6_linear_1_1920)"/>
<path d="M126.649 9.66941C128.026 9.40573 128.026 9.40573 129.432 9.13672C130.366 9.31251 131.299 9.48829 132.26 9.66941C132.631 10.7806 133.001 11.8917 133.383 13.0365C134.124 12.1106 134.864 11.1846 135.628 10.2306C136.183 10.0454 136.739 9.86021 137.311 9.66941C138.608 9.66941 139.904 9.66941 141.239 9.66941C141.436 10.5838 141.633 11.4982 141.836 12.4403C141.541 13.8466 141.541 13.8466 141.239 15.2813C140.36 15.4433 139.48 15.6054 138.574 15.7723C137.602 15.7955 136.629 15.8186 135.628 15.8425C134.887 16.5832 134.146 17.324 133.383 18.0872C133.342 19.2534 133.3 20.4195 133.258 21.621C133.288 23.0012 133.317 24.3815 133.348 25.8036C133.388 27.1896 133.427 28.5757 133.468 30.0037C133.255 31.0715 133.042 32.1392 132.822 33.2393C131.807 33.6357 130.793 34.0322 129.748 34.4406C128.725 34.0442 127.702 33.6477 126.649 33.2393C126.353 32.1311 126.353 32.1311 126.051 31.0006C125.984 30.0379 125.917 29.0752 125.848 28.0834C125.843 27.02 125.838 25.9566 125.832 24.8609C125.858 23.7368 125.885 22.6126 125.912 21.4544C125.893 20.3302 125.874 19.206 125.854 18.0478C125.864 16.9844 125.873 15.921 125.884 14.8253C125.893 13.8379 125.903 12.8504 125.914 11.8331C126.156 11.119 126.399 10.405 126.649 9.66941Z" fill="url(#paint7_linear_1_1920)"/>
<path d="M77.8256 14.7197C79.4923 14.7197 81.1591 14.7197 82.8763 14.7197C84.0048 15.3621 84.0048 15.3621 85.1561 16.0175C85.9721 17.0418 85.9721 17.0418 86.8046 18.0869C86.9551 19.0938 87.1056 20.1008 87.2606 21.1383C87.1101 22.1684 86.9597 23.1986 86.8046 24.2599C86.3532 25.0238 85.9018 25.7878 85.4367 26.5748C84.777 27.1073 84.1172 27.6397 83.4375 28.1882C82.1701 28.5181 82.1701 28.5181 80.8771 28.8547C79.6444 28.8026 79.6444 28.8026 78.3868 28.7494C77.4608 28.0087 76.5349 27.2679 75.5809 26.5047C75.2105 25.5787 74.8401 24.6528 74.4585 23.6987C74.389 22.7728 74.3196 21.8468 74.248 20.8928C74.3175 19.9668 74.3869 19.0409 74.4585 18.0869C75.1993 17.1609 75.94 16.2349 76.7032 15.2809C77.0736 15.0957 77.444 14.9105 77.8256 14.7197Z" fill="white"/>
<path d="M181.645 9.10799C182.606 9.05012 183.566 8.99224 184.556 8.93262C185.633 8.99049 186.709 9.04836 187.818 9.10799C189.3 9.84876 190.781 10.5895 192.308 11.3527C193.048 11.9083 193.789 12.4639 194.552 13.0363C194.367 13.7771 194.182 14.5178 193.991 15.2811C193.435 15.8366 192.88 16.3922 192.308 16.9646C190.919 16.6868 190.919 16.6868 189.502 16.4034C189.502 16.033 189.502 15.6627 189.502 15.2811C188.113 15.0033 188.113 15.0033 186.696 14.7199C185.214 14.7199 183.733 14.7199 182.206 14.7199C181.28 15.4606 180.354 16.2014 179.4 16.9646C178.868 16.1776 178.335 15.3905 177.787 14.5796C177.196 13.2601 177.196 13.2601 176.594 11.9139C177.705 11.1732 178.817 10.4324 179.961 9.66918C180.517 9.48398 181.073 9.29879 181.645 9.10799Z" fill="url(#paint8_linear_1_1920)"/>
<path d="M46.3994 23.1382C47.6958 23.0775 48.9921 23.0167 50.3277 22.9541C51.1379 22.957 51.9482 22.9599 52.7829 22.9629C53.6394 22.9744 54.496 22.986 55.3784 22.9979C56.2349 23.0008 57.0914 23.0037 57.9739 23.0067C59.1892 23.0154 59.1892 23.0154 60.4291 23.0243C61.7255 23.0619 63.0218 23.0995 64.3574 23.1382C64.3574 23.3234 64.3574 23.5086 64.3574 23.6994C63.1074 23.8557 63.1074 23.8557 61.8321 24.0151C60.9987 24.0961 60.1654 24.1771 59.3067 24.2606C59.4919 24.8162 59.6771 25.3718 59.8679 25.9442C61.8124 25.6664 61.8124 25.6664 63.7962 25.383C63.7962 26.1238 63.7962 26.8645 63.7962 27.6277C63.2407 27.8129 62.6851 27.9981 62.1127 28.1889C61.1867 27.8185 60.2608 27.4482 59.3067 27.0666C58.1956 27.6221 57.0844 28.1777 55.9396 28.7501C54.2729 28.7501 52.6062 28.7501 50.8889 28.7501C49.963 28.1945 49.037 27.639 48.083 27.0666C47.5274 26.3258 46.9718 25.585 46.3994 24.8218C46.3994 24.2662 46.3994 23.7107 46.3994 23.1382Z" fill="white"/>
<path d="M153.025 22.0156C154.691 22.0156 156.358 22.0156 158.075 22.0156C158.816 22.2008 159.557 22.386 160.32 22.5768C160.32 23.8732 160.32 25.1695 160.32 26.5051C159.394 27.2459 158.468 27.9867 157.514 28.7499C156.461 28.8309 155.408 28.9119 154.322 28.9954C153.339 28.9144 152.355 28.8334 151.341 28.7499C150.971 28.1943 150.6 27.6387 150.219 27.0663C150.404 25.9552 150.589 24.844 150.78 23.6992C151.521 23.1436 152.261 22.588 153.025 22.0156Z" fill="white"/>
<path d="M49.7659 14.1592C51.4326 14.1592 53.0994 14.1592 54.8166 14.1592C55.7426 14.7148 56.6685 15.2703 57.6225 15.8427C57.8077 16.9539 57.9929 18.065 58.1837 19.2099C54.4799 19.2099 50.776 19.2099 46.96 19.2099C47.1452 18.2839 47.3303 17.358 47.5211 16.4039C48.2619 15.6632 49.0027 14.9224 49.7659 14.1592Z" fill="white"/>
<path d="M152.464 14.1592C154.131 14.1592 155.797 14.1592 157.515 14.1592C158.255 14.5296 158.996 14.8999 159.759 15.2816C159.944 16.3927 160.13 17.5039 160.32 18.6487C159.591 18.7087 158.862 18.7688 158.111 18.8306C156.704 18.9315 156.704 18.9315 155.27 19.0345C154.332 19.1061 153.395 19.1777 152.429 19.2515C151.335 19.2309 151.335 19.2309 150.219 19.2099C150.219 18.6543 150.219 18.0987 150.219 17.5263C149.849 17.1559 149.478 16.7855 149.097 16.4039C149.467 15.8484 149.837 15.2928 150.219 14.7204C150.96 14.5352 151.701 14.35 152.464 14.1592ZM150.78 16.4039C150.965 16.7743 151.151 17.1447 151.341 17.5263C151.527 17.1559 151.712 16.7855 151.903 16.4039C151.532 16.4039 151.162 16.4039 150.78 16.4039Z" fill="white"/>
<path d="M137.311 9.66992C138.608 9.66992 139.904 9.66992 141.24 9.66992C141.437 10.5959 141.633 11.5218 141.836 12.4759C141.541 13.8648 141.541 13.8648 141.24 15.2818C140.349 15.4207 139.457 15.5596 138.539 15.7027C137.578 15.5638 136.618 15.4249 135.628 15.2818C135.072 14.9114 134.517 14.541 133.944 14.1594C133.389 14.1594 132.833 14.1594 132.261 14.1594C132.446 13.4187 132.631 12.6779 132.822 11.9147C133.007 12.2851 133.192 12.6554 133.383 13.0371C134.124 12.1111 134.865 11.1851 135.628 10.2311C136.183 10.0459 136.739 9.86073 137.311 9.66992Z" fill="url(#paint9_linear_1_1920)"/>
<path d="M86.2431 0.690671C87.9118 0.40583 87.9118 0.40583 89.6142 0.115234C90.7241 0.305129 91.8339 0.495023 92.9774 0.690671C93.2326 1.65967 93.4878 2.62868 93.7508 3.62704C93.7191 4.96715 93.6874 6.30726 93.6548 7.68798C93.6356 9.13118 93.6164 10.5744 93.5967 12.0613C93.5428 13.587 93.4889 15.1126 93.4334 16.6845C93.3948 18.973 93.3948 18.973 93.3555 21.3078C93.327 22.751 93.2984 24.1941 93.2689 25.6811C93.229 27.0212 93.1891 28.3613 93.148 29.742C93.0917 30.711 93.0354 31.68 92.9774 32.6784C92.7922 32.6784 92.607 32.6784 92.4162 32.6784C92.4246 31.7264 92.4329 30.7744 92.4415 29.7935C92.4802 28.4769 92.5189 27.1603 92.5587 25.8038C92.5858 24.386 92.6129 22.9681 92.6409 21.5072C92.6859 19.2589 92.6859 19.2589 92.7319 16.9651C92.7814 15.4662 92.831 13.9673 92.882 12.423C92.913 10.2962 92.913 10.2962 92.9445 8.12641C92.9775 6.80981 93.0104 5.49321 93.0444 4.13672C92.8371 3.18471 92.6298 2.23271 92.4162 1.25186C91.4906 1.05943 90.5651 0.867007 89.6115 0.66875C88.6851 0.861176 87.7588 1.0536 86.8043 1.25186C86.6235 2.06207 86.4426 2.87229 86.2563 3.70706C86.3214 4.74876 86.3865 5.79047 86.4536 6.86374C86.5042 7.90545 86.5549 8.94715 86.607 10.0204C86.6721 10.8306 86.7372 11.6409 86.8043 12.4756C86.0636 12.2904 85.3228 12.1052 84.5596 11.9144C84.5596 11.544 84.5596 11.1737 84.5596 10.7921C84.93 10.7921 85.3003 10.7921 85.6819 10.7921C85.6805 10.0629 85.6791 9.33367 85.6776 8.58238C85.6559 7.64484 85.6342 6.70731 85.6118 5.74136C85.5756 4.80383 85.5395 3.86629 85.5022 2.90035C85.7467 2.17116 85.9912 1.44196 86.2431 0.690671Z" fill="white"/>
<path d="M156.953 22.5771C158.065 22.5771 159.176 22.5771 160.321 22.5771C160.321 23.8735 160.321 25.1698 160.321 26.5055C159.395 27.2462 158.469 27.987 157.515 28.7502C156.959 28.565 156.403 28.3798 155.831 28.189C156.201 28.189 156.572 28.189 156.953 28.189C156.953 27.6335 156.953 27.0779 156.953 26.5055C156.583 26.3203 156.213 26.1351 155.831 25.9443C156.201 24.8331 156.572 23.722 156.953 22.5771Z" fill="white"/>
<path d="M165.932 14.7197C166.117 14.7197 166.302 14.7197 166.493 14.7197C166.563 16.0566 166.633 17.3934 166.706 18.7708C166.724 19.6063 166.743 20.4419 166.762 21.3027C166.777 22.186 166.793 23.0693 166.809 23.9793C166.844 24.8626 166.879 25.7459 166.915 26.6559C166.927 27.4915 166.939 28.327 166.951 29.1879C166.8 30.5247 166.649 31.8616 166.493 33.2389C165.012 33.2389 163.53 33.2389 162.004 33.2389C161.818 32.8685 161.633 32.4982 161.442 32.1166C161.813 32.1166 162.183 32.1166 162.565 32.1166C162.935 31.7462 163.306 31.3758 163.687 30.9942C164.428 31.1794 165.169 31.3646 165.932 31.5554C165.925 30.34 165.919 29.1247 165.912 27.8726C165.907 26.31 165.902 24.7475 165.897 23.1375C165.89 21.575 165.884 20.0124 165.877 18.4025C165.895 17.1872 165.913 15.9719 165.932 14.7197Z" fill="url(#paint10_linear_1_1920)"/>
<path d="M154.147 14.7197C155.629 14.7197 157.111 14.7197 158.637 14.7197C159.007 14.9049 159.378 15.0901 159.759 15.2809C159.945 16.3921 160.13 17.5032 160.321 18.648C159.024 18.648 157.728 18.648 156.392 18.648C156.207 17.7221 156.022 16.7961 155.831 15.8421C155.275 15.4717 154.72 15.1013 154.147 14.7197Z" fill="white"/>
<defs>
<linearGradient id="paint0_linear_1_1920" x1="0" y1="17.5489" x2="36.1177" y2="17.5489" gradientUnits="userSpaceOnUse">
<stop stop-color="#2C7BE5"/>
<stop offset="1" stop-color="#00D078"/>
</linearGradient>
<linearGradient id="paint1_linear_1_1920" x1="68.1104" y1="17.235" x2="93.1841" y2="17.235" gradientUnits="userSpaceOnUse">
<stop stop-color="#2C7BE5"/>
<stop offset="1" stop-color="#00D078"/>
</linearGradient>
<linearGradient id="paint2_linear_1_1920" x1="144.607" y1="21.665" x2="166.952" y2="21.665" gradientUnits="userSpaceOnUse">
<stop stop-color="#2C7BE5"/>
<stop offset="1" stop-color="#00D078"/>
</linearGradient>
<linearGradient id="paint3_linear_1_1920" x1="39.9453" y1="21.5773" x2="64.357" y2="21.5773" gradientUnits="userSpaceOnUse">
<stop stop-color="#2C7BE5"/>
<stop offset="1" stop-color="#00D078"/>
</linearGradient>
<linearGradient id="paint4_linear_1_1920" x1="198.759" y1="16.9803" x2="223.173" y2="16.9803" gradientUnits="userSpaceOnUse">
<stop stop-color="#2C7BE5"/>
<stop offset="1" stop-color="#00D078"/>
</linearGradient>
<linearGradient id="paint5_linear_1_1920" x1="95.6445" y1="17.4957" x2="123.965" y2="17.4957" gradientUnits="userSpaceOnUse">
<stop stop-color="#2C7BE5"/>
<stop offset="1" stop-color="#00D078"/>
</linearGradient>
<linearGradient id="paint6_linear_1_1920" x1="171.368" y1="21.5067" x2="195.113" y2="21.5067" gradientUnits="userSpaceOnUse">
<stop stop-color="#2C7BE5"/>
<stop offset="1" stop-color="#00D078"/>
</linearGradient>
<linearGradient id="paint7_linear_1_1920" x1="125.832" y1="21.7887" x2="141.836" y2="21.7887" gradientUnits="userSpaceOnUse">
<stop stop-color="#2C7BE5"/>
<stop offset="1" stop-color="#00D078"/>
</linearGradient>
<linearGradient id="paint8_linear_1_1920" x1="176.594" y1="12.9486" x2="194.552" y2="12.9486" gradientUnits="userSpaceOnUse">
<stop stop-color="#2C7BE5"/>
<stop offset="1" stop-color="#00D078"/>
</linearGradient>
<linearGradient id="paint9_linear_1_1920" x1="132.261" y1="12.6863" x2="141.836" y2="12.6863" gradientUnits="userSpaceOnUse">
<stop stop-color="#2C7BE5"/>
<stop offset="1" stop-color="#00D078"/>
</linearGradient>
<linearGradient id="paint10_linear_1_1920" x1="161.442" y1="23.9793" x2="166.951" y2="23.9793" gradientUnits="userSpaceOnUse">
<stop stop-color="#2C7BE5"/>
<stop offset="1" stop-color="#00D078"/>
</linearGradient>
</defs>
</svg>
