<svg width="154" height="24" viewBox="0 0 154 24" fill="none" xmlns="http://www.w3.org/2000/svg">
<path d="M0.646708 1.24363C1.45216 1.09765 2.25761 0.95167 3.08747 0.80127C4.35687 1.02024 4.35687 1.02024 5.65192 1.24363C6.18893 2.02283 6.72594 2.80204 7.27922 3.60486C7.71101 4.62031 8.1428 5.63576 8.58768 6.68199C9.25025 8.19623 9.25025 8.19623 9.92621 9.74106C10.2945 10.6215 10.6627 11.502 11.0422 12.4091C11.4233 13.1714 11.8045 13.9338 12.1972 14.7192C12.634 13.9648 13.0707 13.2104 13.5207 12.4332C13.7986 11.9468 14.0766 11.4604 14.3629 10.9593C14.6647 10.4213 14.9664 9.88328 15.2773 9.32898C15.595 8.74333 15.9126 8.15768 16.2399 7.55429C16.5496 6.97261 16.8593 6.39094 17.1784 5.79163C17.6945 4.79901 18.2107 3.80639 18.7425 2.78369C18.8695 2.40253 18.9966 2.02136 19.1275 1.62864C19.9482 1.51102 20.7688 1.39339 21.6143 1.2722C22.8609 1.44864 22.8609 1.44864 24.1327 1.62864C24.3424 2.25846 24.5521 2.88828 24.7682 3.53718C24.7689 4.40821 24.7696 5.27923 24.7704 6.17665C24.7749 7.58369 24.7749 7.58369 24.7794 9.01916C24.7452 10.5066 24.7452 10.5066 24.7103 12.0241C24.7232 13.0157 24.7361 14.0073 24.7494 15.029C24.7404 15.9671 24.7315 16.9051 24.7223 17.8715C24.7126 18.7426 24.7029 19.6136 24.693 20.511C24.5081 21.1408 24.3232 21.7706 24.1327 22.4195C23.432 22.5724 22.7313 22.7253 22.0094 22.8828C21.3125 22.7299 20.6156 22.577 19.8975 22.4195C19.6511 21.0021 19.6511 21.0021 19.3997 19.556C19.396 18.9654 19.3923 18.3748 19.3884 17.7663C19.4141 16.8297 19.4141 16.8297 19.4403 15.8743C19.4411 15.2499 19.4418 14.6255 19.4426 13.9823C19.4443 13.3917 19.4461 12.801 19.4479 12.1925C19.4692 11.2476 19.4905 10.3026 19.5125 9.32898C19.0837 10.095 19.0837 10.095 18.6462 10.8766C18.2968 11.5094 17.9474 12.1422 17.5874 12.7941C17.0792 13.7709 16.571 14.7476 16.0474 15.7539C15.5392 16.683 15.0309 17.6121 14.5073 18.5694C13.5544 19.7129 13.5544 19.7129 12.5822 20.8795C12.074 20.6254 11.5658 20.3713 11.0422 20.1094C10.6531 19.5774 10.2639 19.0454 9.86304 18.4972C9.48982 17.8857 9.11659 17.2743 8.73206 16.6443C8.35089 15.7549 7.96972 14.8655 7.57701 13.9492C7.17202 13.1948 6.76703 12.439 6.76703 12.439C..."/>
<!-- truncated for brevity -->
</svg>
