<svg width="24" height="26" viewBox="0 0 24 26" fill="none" xmlns="http://www.w3.org/2000/svg">
<path d="M8.85554 16.1708C9.73698 15.869 10.6184 15.5672 11.5266 15.2563C12.8726 15.709 12.8726 15.709 14.2458 16.1708C14.5912 17.5287 14.5912 17.5287 14.9436 18.914C14.9674 19.9146 14.9913 20.9151 15.0158 21.946C15.1429 22.7083 15.2699 23.4707 15.4008 24.2561C15.1467 24.6373 14.8926 25.0184 14.6308 25.4112C14.2496 25.5382 13.8685 25.6653 13.4757 25.7962C12.4593 25.7962 11.4428 25.7962 10.3956 25.7962C9.44269 25.415 9.44269 25.415 8.47052 25.0261C8.37374 24.3621 8.27696 23.698 8.17725 23.0138C8.18668 22.2009 8.19611 21.3879 8.20582 20.5503C8.2758 19.3562 8.2758 19.3562 8.34719 18.138C8.51495 17.4888 8.6827 16.8396 8.85554 16.1708Z" fill="url(#paint0_linear_62_1966)"/>
<path d="M10.3955 0C11.1579 0 11.9202 0 12.7056 0C13.468 0.381167 14.2303 0.762333 15.0157 1.15505C15.1428 1.40916 15.2699 1.66327 15.4008 1.92508C15.4325 2.60007 15.4643 3.27505 15.497 3.97048C15.4653 4.69311 15.4335 5.41574 15.4008 6.16027C15.0196 6.79554 14.6384 7.43082 14.2457 8.08535C13.4834 8.46652 13.4834 8.46652 12.7056 8.85538C11.8163 8.85538 10.9269 8.85538 10.0105 8.85538C9.63731 8.28363 9.26408 7.71188 8.87955 7.12281C8.61749 6.424 8.35544 5.7252 8.08545 5.00522C8.08545 3.98877 8.08545 2.97233 8.08545 1.92508C8.59367 1.41686 9.10189 0.908639 9.62552 0.385017C9.87963 0.257961 10.1337 0.130906 10.3955 0Z" fill="url(#paint1_linear_62_1966)"/>
<path d="M15.4007 10.3955C15.9253 10.2947 16.4499 10.194 16.9904 10.0902C17.649 10.0798 18.3076 10.0693 18.9862 10.0586C19.6517 10.0755 20.3173 10.0923 21.003 10.1097C21.8509 10.2512 21.8509 10.2512 22.716 10.3955C23.0972 10.9037 23.4784 11.4119 23.8711 11.9356C23.744 12.952 23.617 13.9684 23.4861 15.0157C22.9778 15.3969 22.4696 15.778 21.946 16.1707C21.0407 16.139 20.1354 16.1072 19.2027 16.0745C17.8925 15.9315 17.8925 15.9315 16.5558 15.7857C16.3016 15.6587 16.0475 15.5316 15.7857 15.4007C15.6587 15.0195 15.5316 14.6384 15.4007 14.2457C15.2419 13.5865 15.0831 12.9274 14.9194 12.2484C15.0783 11.6369 15.2371 11.0255 15.4007 10.3955Z" fill="url(#paint2_linear_62_1966)"/>
<path d="M1.15505 10.0105C2.59634 9.9509 2.59634 9.9509 4.06674 9.89014C5.01171 9.92984 5.95669 9.96955 6.9303 10.0105C7.18441 10.2646 7.43852 10.5187 7.70033 10.7805C7.72416 11.5508 7.74798 12.321 7.77252 13.1147C7.73679 14.2462 7.73679 14.2462 7.70033 15.4007C7.57328 15.5277 7.44622 15.6548 7.31532 15.7857C6.31475 15.8175 5.31419 15.8492 4.28331 15.882C3.25098 15.8502 2.21866 15.8184 1.15505 15.7857C0.773884 15.4045 0.392717 15.0234 0 14.6307C0 13.4872 0 12.3437 0 11.1655C0.381167 10.7843 0.762333 10.4032 1.15505 10.0105Z" fill="url(#paint3_linear_62_1966)"/>
<path d="M14.6305 13.8608C14.8846 14.3691 15.1387 14.8773 15.4005 15.4009C15.5276 15.0197 15.6546 14.6386 15.7855 14.2459C15.7855 14.627 15.7855 15.0082 15.7855 15.4009C16.0396 15.528 16.2937 15.655 16.5556 15.7859C15.9203 15.913 15.285 16.04 14.6305 16.1709C14.5987 16.8777 14.5669 17.5844 14.5342 18.3126C14.5819 19.3489 14.5819 19.3489 14.6305 20.4061C14.5034 20.4061 14.3764 20.4061 14.2455 20.4061C14.3884 19.3579 14.3884 19.3579 14.5342 18.2885C14.4389 17.5897 14.3436 16.8909 14.2455 16.1709C13.4196 16.0915 12.5937 16.0121 11.7428 15.9303C10.917 16.0097 10.0911 16.0891 9.24023 16.1709C9.24023 16.0439 9.24023 15.9168 9.24023 15.7859C9.86757 15.8097 10.4949 15.8336 11.1413 15.8581C11.7845 15.8343 12.4277 15.8105 13.0904 15.7859C13.2175 15.2777 13.3445 14.7695 13.4754 14.2459C13.8566 14.1188 14.2378 13.9917 14.6305 13.8608Z" fill="url(#paint4_linear_62_1966)"/>
<defs>
<linearGradient id="paint0_linear_62_1966" x1="11.789" y1="15.2563" x2="11.789" y2="25.7962" gradientUnits="userSpaceOnUse">
<stop stop-color="#228FCC"/>
<stop offset="1" stop-color="#00D078"/>
</linearGradient>
<linearGradient id="paint1_linear_62_1966" x1="11.7912" y1="0" x2="11.7912" y2="8.85538" gradientUnits="userSpaceOnUse">
<stop stop-color="#228FCC"/>
<stop offset="1" stop-color="#00D078"/>
</linearGradient>
<linearGradient id="paint2_linear_62_1966" x1="19.3953" y1="10.0586" x2="19.3953" y2="16.1707" gradientUnits="userSpaceOnUse">
<stop stop-color="#228FCC"/>
<stop offset="1" stop-color="#00D078"/>
</linearGradient>
<linearGradient id="paint3_linear_62_1966" x1="3.88626" y1="9.89014" x2="3.88626" y2="15.882" gradientUnits="userSpaceOnUse">
<stop stop-color="#228FCC"/>
<stop offset="1" stop-color="#00D078"/>
</linearGradient>
<linearGradient id="paint4_linear_62_1966" x1="12.8979" y1="13.8608" x2="12.8979" y2="20.4061" gradientUnits="userSpaceOnUse">
<stop stop-color="#228FCC"/>
<stop offset="1" stop-color="#00D078"/>
</linearGradient>
</defs>
</svg>
