<svg width="154" height="24" viewBox="0 0 154 24" fill="none" xmlns="http://www.w3.org/2000/svg">
<path d="M0.646708 1.24363C1.45216 1.09765 2.25761 0.95167 3.08747 0.80127C4.35687 1.02024 4.35687 1.02024 5.65192 1.24363C6.18893 2.02283 6.72594 2.80204 7.27922 3.60486C7.71101 4.62031 8.1428 5.63576 8.58768 6.68199C9.25025 8.19623 9.25025 8.19623 9.92621 9.74106C10.2945 10.6215 10.6627 11.502 11.0422 12.4091C11.4233 13.1714 11.8045 13.9338 12.1972 14.7192C12.634 13.9648 13.0707 13.2104 13.5207 12.4332C13.7986 11.9468 14.0766 11.4604 14.3629 10.9593C14.6647 10.4213 14.9664 9.88328 15.2773 9.32898C15.595 8.74333 15.9126 8.15768 16.2399 7.55429C16.5496 6.97261 16.8593 6.39094 17.1784 5.79163C17.6945 4.79901 18.2107 3.80639 18.7425 2.78369C18.8695 2.40253 18.9966 2.02136 19.1275 1.62864C19.9482 1.51102 20.7688 1.39339 21.6143 1.2722C22.8609 1.44864 22.8609 1.44864 24.1327 1.62864C24.3424 2.25846 24.5521 2.88828 24.7682 3.53718C24.7689 4.40821 24.7696 5.27923 24.7704 6.17665C24.7749 7.58369 24.7749 7.58369 24.7794 9.01916C24.7452 10.5066 24.7452 10.5066 24.7103 12.0241C24.7232 13.0157 24.7361 14.0073 24.7494 15.029C24.7404 15.9671 24.7315 16.9051 24.7223 17.8715C24.7126 18.7426 24.7029 19.6136 24.693 20.511C24.5081 21.1408 24.3232 21.7706 24.1327 22.4195C23.432 22.5724 22.7313 22.7253 22.0094 22.8828C21.3125 22.7299 20.6156 22.577 19.8975 22.4195C19.6511 21.0021 19.6511 21.0021 19.3997 19.556C19.396 18.9654 19.3923 18.3748 19.3884 17.7663C19.4141 16.8297 19.4141 16.8297 19.4403 15.8743C19.4411 15.2499 19.4418 14.6255 19.4426 13.9823C19.4443 13.3917 19.4461 12.801 19.4479 12.1925C19.4692 11.2476 19.4905 10.3026 19.5125 9.32898C19.0837 10.095 19.0837 10.095 18.6462 10.8766C18.2968 11.5094 17.9474 12.1422 17.5874 12.7941C17.0792 13.7709 16.571 14.7476 16.0474 15.7539C15.5392 16.683 15.0309 17.6121 14.5073 18.5694C13.5544 19.7129 13.5544 19.7129 12.5822 20.8795C12.074 20.6254 11.5658 20.3713 11.0422 20.1094C10.6531 19.5774 10.2639 19.0454 9.86304 18.4972C9.48982 17.8857 9.11659 17.2743 8.73206 16.6443C8.35089 15.7549 7.96972 14.8655 7.57701 13.9492C7.17202 13.1948 6.76703 12.4404 6.34977 11.6631C5.99242 11.0199 5.63508 10.3767 5.26691 9.71399C5.28825 10.659 5.30959 11.6039 5.33158 12.5776C5.33332 13.1682 5.33505 13.7588 5.33684 14.3673C5.33796 15.3038 5.33796 15.3038 5.3391 16.2593C5.35622 16.8836 5.37334 17.508 5.39099 18.1513C5.38726 18.7419 5.38354 19.3325 5.37971 19.941C5.21543 20.886 5.05115 21.8309 4.88189 22.8046C4.18498 22.9609 3.48806 23.1172 2.77003 23.2783C2.06934 23.122 1.36864 22.9656 0.646708 22.8046C0.369394 21.8248 0.369394 21.8248 0.0864784 20.8253C0.0768003 19.922 0.0671222 19.0188 0.0571509 18.0881C0.0482173 17.1153 0.0392837 16.1426 0.0300794 15.1403C0.0429835 14.112 0.0558876 13.0836 0.0691827 12.0241C0.0463524 10.9957 0.0235221 9.96738 0 8.90786C0.00297786 7.93509 0.00595573 6.96233 0.00902383 5.96008C0.00976829 5.05679 0.0105128 4.15351 0.0112798 3.22285C0.220971 2.56971 0.430662 1.91656 0.646708 1.24363Z" fill="url(#paint0_linear_62_1972)"/>
<path d="M59.5544 0.858552C60.1869 0.726534 60.8194 0.594515 61.471 0.458496C62.4281 0.656524 62.4281 0.656524 63.4046 0.858552C63.569 1.5117 63.7334 2.16484 63.9027 2.83778C63.9071 3.74106 63.9114 4.64435 63.9159 5.57501C63.9209 6.54778 63.9258 7.52054 63.9309 8.52279C63.9161 9.55115 63.9012 10.5795 63.8858 11.639C63.9082 13.1816 63.9082 13.1816 63.9309 14.7552C63.926 15.728 63.921 16.7008 63.9159 17.703C63.9116 18.6063 63.9072 19.5096 63.9027 20.4403C63.7383 21.0934 63.5739 21.7465 63.4046 22.4195C62.7667 22.5326 62.1288 22.6458 61.4716 22.7624C60.5226 22.5927 60.5226 22.5927 59.5544 22.4195C59.4273 22.1654 59.3003 21.9113 59.1694 21.6495C58.407 22.0068 58.407 22.0068 57.6293 22.3714C56.994 22.6414 56.3587 22.9113 55.7042 23.1895C54.5607 23.1895 53.4172 23.1895 52.2391 23.1895C51.4767 22.6813 50.7144 22.1731 49.929 21.6495C49.516 21.2206 49.1031 20.7918 48.6777 20.35C48.3283 19.8894 47.9789 19.4289 47.6189 18.9543C47.3648 18.192 47.1106 17.4297 46.8488 16.6442C46.8091 15.9534 46.7694 15.2625 46.7285 14.5507C46.7682 13.844 46.8079 13.1372 46.8488 12.4091C47.4206 11.075 47.4206 11.075 48.0039 9.71394C48.5121 9.2216 49.0203 8.72926 49.544 8.222C50.0522 7.82495 50.5604 7.4279 51.084 7.01882C51.4652 6.89176 51.8463 6.76471 52.2391 6.6338C52.9299 6.60998 53.6208 6.58616 54.3326 6.56161C55.0393 6.58543 55.7461 6.60926 56.4743 6.6338C56.9825 6.88791 57.4907 7.14202 58.0143 7.40384C58.1414 7.65795 58.2684 7.91206 58.3993 8.17387C58.7805 8.30092 59.1617 8.42798 59.5544 8.55889C59.5097 8.00302 59.465 7.44715 59.419 6.87444C59.3843 6.15975 59.3495 5.44506 59.3137 4.70872C59.2691 3.99403 59.2244 3.27934 59.1784 2.543C59.3025 1.98713 59.4265 1.43126 59.5544 0.858552Z" fill="url(#paint1_linear_62_1972)"/>
<path d="M103.061 6.63385C104.538 6.58621 104.538 6.58621 106.045 6.5376C107.617 6.58524 107.617 6.58524 109.221 6.63385C110.555 7.2056 110.555 7.2056 111.916 7.7889C112.869 8.74182 112.869 8.74182 113.842 9.71399C114.032 9.90457 114.032 9.90457 114.227 10.099C114.275 11.0286 114.323 11.9582 114.372 12.9159C114.385 13.4879 114.398 14.0599 114.411 14.6493C114.421 15.252 114.432 15.8548 114.443 16.4758C114.467 17.0801 114.491 17.6844 114.516 18.3069C114.528 19.1642 114.528 19.1642 114.541 20.0387C114.437 20.9515 114.333 21.8642 114.227 22.8046C113.21 22.8046 112.194 22.8046 111.146 22.8046C110.956 21.8516 110.956 21.8516 110.761 20.8795C110.507 20.8795 110.253 20.8795 109.991 20.8795C109.737 21.3877 109.483 21.8959 109.221 22.4195C108.332 22.6736 107.443 22.9278 106.526 23.1896C105.383 23.1896 104.239 23.1896 103.061 23.1896C102.172 22.5543 101.282 21.919 100.366 21.2645C99.9848 20.6292 99.6037 19.9939 99.2109 19.3394C99.2109 18.1959 99.2109 17.0524 99.2109 15.8743C99.8462 15.239 100.481 14.6037 101.136 13.9492C101.39 13.6951 101.644 13.4409 101.906 13.1791C102.541 13.0521 103.177 12.925 103.831 12.7941C105.415 12.7822 105.415 12.7822 107.032 12.7701C108.008 12.778 108.985 12.7859 109.991 12.7941C109.864 12.0318 109.737 11.2695 109.606 10.484C109.098 10.357 108.59 10.2299 108.066 10.099C106.804 10.0394 106.804 10.0394 105.516 9.97868C104.706 10.0184 103.896 10.0581 103.061 10.099C102.807 10.6072 102.553 11.1154 102.291 11.6391C101.783 11.385 101.275 11.1308 100.751 10.869C100.497 10.6149 100.243 10.3608 99.981 10.099C100.108 9.46372 100.235 8.82845 100.366 8.17392C100.874 7.79275 101.382 7.41159 101.906 7.01887C102.287 6.89181 102.668 6.76476 103.061 6.63385Z" fill="url(#paint2_linear_62_1972)"/>
<path d="M34.5281 6.24902C35.5445 6.24902 36.561 6.24902 37.6082 6.24902C38.6247 6.63019 39.6411 7.01136 40.6883 7.40407C41.1807 7.89641 41.673 8.38875 42.1803 8.89601C42.5773 9.42012 42.9744 9.94422 43.3835 10.4842C43.6376 11.1195 43.8917 11.7548 44.1535 12.4093C44.1535 13.5528 44.1535 14.6963 44.1535 15.8744C42.8194 16.0419 42.8194 16.0419 41.4584 16.2128C40.9025 16.2017 40.3466 16.1905 39.7739 16.179C39.1863 16.15 38.5987 16.1209 37.9932 16.091C37.1118 16.0676 37.1118 16.0676 36.2125 16.0436C35.3787 16.0202 35.3787 16.0202 34.5281 15.9963C33.6387 15.9561 32.7493 15.9159 31.833 15.8744C32.3412 16.7638 32.8494 17.6532 33.373 18.5696C33.8813 18.8237 34.3895 19.0778 34.9131 19.3396C36.0566 19.3396 37.2001 19.3396 38.3782 19.3396C39.1406 18.9584 39.9029 18.5773 40.6883 18.1845C41.6413 18.5657 41.6413 18.5657 42.6134 18.9546C42.804 19.7169 42.804 19.7169 42.9984 20.4946C42.4664 20.8996 41.9344 21.3046 41.3862 21.7219C40.7747 22.0792 40.1633 22.4366 39.5333 22.8047C38.771 22.9953 38.771 22.9953 37.9932 23.1898C37.3341 23.2453 36.675 23.3009 35.996 23.3582C35.2574 23.3026 34.5189 23.247 33.758 23.1898C33.1307 22.8483 32.5034 22.5068 31.857 22.155C31.3409 21.7342 30.8247 21.3133 30.2929 20.8797C29.7847 20.2444 29.2765 19.6091 28.7528 18.9546C28.3717 18.0652 27.9905 17.1758 27.5978 16.2595C27.5343 15.6321 27.4707 15.0048 27.4053 14.3584C27.4688 13.7152 27.5323 13.072 27.5978 12.4093C27.8598 11.8693 28.1219 11.3293 28.3919 10.773C28.7651 10.2965 29.1383 9.82005 29.5229 9.32916C30.178 8.68594 30.178 8.68594 30.8464 8.02973C31.299 7.6962 31.7516 7.36268 32.218 7.01906C32.9803 6.76495 33.7426 6.51083 34.5281 6.24902Z" fill="url(#paint3_linear_62_1972)"/>
<path d="M136.943 0.473751C137.645 0.317413 138.347 0.161075 139.07 0C140.113 0.234507 140.113 0.234507 141.178 0.473751C141.314 1.36314 141.451 2.25253 141.592 3.16887C141.578 3.72474 141.564 4.2806 141.55 4.85332C141.515 5.44095 141.479 6.02858 141.443 6.63402C141.424 7.22165 141.404 7.80928 141.385 8.41472C141.366 8.97059 141.347 9.52646 141.327 10.0992C141.278 10.9886 141.229 11.8779 141.178 12.7943C141.686 12.5402 142.194 12.2861 142.718 12.0243C143.139 11.5478 143.56 11.0713 143.993 10.5804C144.462 10.0405 144.93 9.50047 145.413 8.94412C145.826 8.49942 146.239 8.05473 146.664 7.59656C147.379 7.1201 147.379 7.1201 148.108 6.63402C149.24 6.56255 149.24 6.56255 150.394 6.48964C151.038 6.53728 151.681 6.58493 152.343 6.63402C151.962 7.2693 151.581 7.90457 151.188 8.5591C150.529 9.1785 149.87 9.79789 149.191 10.4361C148.274 11.4128 148.274 11.4128 147.338 12.4093C147.338 13.2987 147.338 14.188 147.338 15.1044C148.291 16.0573 148.291 16.0573 149.263 17.0295C149.795 17.6647 150.327 18.3 150.876 18.9546C151.36 19.5898 151.844 20.2251 152.343 20.8796C152.598 21.5149 152.852 22.1502 153.113 22.8047C152.367 22.8444 151.621 22.8841 150.852 22.925C149.684 22.8655 149.684 22.8655 148.493 22.8047C148.239 22.1694 147.985 21.5342 147.723 20.8796C147.152 20.6891 147.152 20.6891 146.568 20.4946C146.06 19.7958 145.552 19.097 145.028 18.377C144.52 17.6782 144.012 16.9794 143.488 16.2594C142.916 16.0689 142.916 16.0689 142.333 15.8744C142.079 16.1285 141.825 16.3826 141.563 16.6445C141.571 17.6768 141.579 18.7091 141.587 19.7727C141.385 21.2736 141.385 21.2736 141.178 22.8047C140.135 23.0496 140.135 23.0496 139.07 23.2995C138.368 23.1362 137.666 22.973 136.943 22.8047C136.672 21.79 136.672 21.79 136.395 20.7548C136.388 19.3515 136.388 19.3515 136.38 17.9198C136.375 16.9123 136.369 15.9048 136.364 14.8668C136.38 13.8017 136.397 12.7366 136.413 11.6392C136.389 10.0416 136.389 10.0416 136.364 8.41171C136.369 7.4042 136.375 6.39669 136.38 5.35865C136.385 4.42311 136.39 3.48756 136.395 2.52366C136.576 1.84719 136.756 1.17072 136.943 0.473751Z" fill="url(#paint4_linear_62_1972)"/>
<path d="M66.0997 1.24368C66.6595 1.07927 67.2193 0.914869 67.7961 0.745485C68.5704 0.741142 69.3446 0.736799 70.1423 0.732325C70.9761 0.727362 71.8099 0.722399 72.669 0.717285C73.5505 0.732174 74.4319 0.747064 75.3401 0.762404C76.2215 0.747515 77.103 0.732626 78.0111 0.717285C78.8449 0.722248 79.6787 0.727211 80.5378 0.732325C81.6992 0.738839 81.6992 0.738839 82.884 0.745485C83.7237 0.992089 83.7237 0.992089 84.5805 1.24368C84.7351 1.89595 84.8897 2.54823 85.049 3.22027C84.8944 3.83855 84.7398 4.45683 84.5805 5.09384C84.0821 5.11518 83.5838 5.13652 83.0704 5.15851C82.1078 4.97165 82.1078 4.97165 81.1258 4.78102C80.492 4.74627 79.8581 4.71153 79.2051 4.67574C78.4354 4.8827 78.4354 4.8827 77.6502 5.09384C77.484 5.63681 77.3178 6.17977 77.1465 6.73919C77.1385 7.47472 77.1305 8.21025 77.1223 8.96807C77.1637 9.76713 77.2051 10.5662 77.2478 11.3895C77.325 12.2342 77.4022 13.0789 77.4817 13.9492C77.5485 14.7939 77.6152 15.6387 77.684 16.509C77.7514 17.7076 77.7514 17.7076 77.8201 18.9304C77.8864 19.6724 77.9527 20.4143 78.021 21.1788C77.8986 21.7153 77.7762 22.2518 77.6502 22.8046C76.9511 22.9644 76.252 23.1242 75.5317 23.2889C74.8332 23.1291 74.1347 22.9693 73.415 22.8046C73.2946 22.2681 73.1743 21.7316 73.0503 21.1788C73.119 20.4368 73.1877 19.6948 73.2586 18.9304C73.3052 18.1313 73.3519 17.3323 73.3999 16.509C73.4684 15.6643 73.5369 14.8195 73.6075 13.9492C73.6879 13.1045 73.7683 12.2598 73.8511 11.3895C73.9152 10.1909 73.9152 10.1909 73.9805 8.96807C73.9705 8.23254 73.9606 7.49701 73.9504 6.73919C73.7737 6.19622 73.597 5.65326 73.415 5.09384C72.873 4.95587 72.331 4.81789 71.7726 4.67574C70.7691 4.72785 70.7691 4.72785 69.7453 4.78102C69.0681 4.90559 68.3909 5.03016 67.6931 5.15851C66.9044 5.1265 66.9044 5.1265 66.0997 5.09384C65.9411 4.47556 65.7825 3.85728 65.6191 3.22027C65.7777 2.56799 65.9363 1.91572 66.0997 1.24368Z" fill="url(#paint5_linear_62_1972)"/>
<path d="M124.622 6.24922C125.281 6.20952 125.941 6.16981 126.62 6.12891C127.358 6.16861 128.097 6.20832 128.858 6.24922C129.874 6.75745 130.89 7.26567 131.938 7.78929C132.446 8.17046 132.954 8.55162 133.478 8.94434C133.351 9.45256 133.224 9.96078 133.093 10.4844C132.712 10.8656 132.33 11.2467 131.938 11.6395C130.985 11.4489 130.985 11.4489 130.013 11.2544C130.013 11.0003 130.013 10.7462 130.013 10.4844C129.06 10.2938 129.06 10.2938 128.088 10.0994C127.071 10.0994 126.055 10.0994 125.007 10.0994C124.245 10.8617 123.483 11.6241 122.697 12.4095C122.634 13.0606 122.57 13.7118 122.505 14.3827C122.568 15.0021 122.632 15.6215 122.697 16.2597C122.951 16.7679 123.206 17.2761 123.467 17.7997C123.467 18.1809 123.467 18.5621 123.467 18.9548C124.103 19.0818 124.738 19.2089 125.392 19.3398C126.409 19.3398 127.425 19.3398 128.473 19.3398C129.235 18.8316 129.997 18.3233 130.783 17.7997C131.291 17.9268 131.799 18.0538 132.323 18.1847C132.831 18.693 133.339 19.2012 133.863 19.7248C133.402 20.0822 132.942 20.4395 132.467 20.8077C131.911 21.2127 131.355 21.6176 130.783 22.0349C130.02 22.4161 129.258 22.7972 128.473 23.19C127.869 23.2535 127.266 23.317 126.644 23.3825C125.977 23.3189 125.31 23.2554 124.622 23.19C123.963 22.9358 123.304 22.6817 122.625 22.4199C122.014 22.0388 121.402 21.6576 120.772 21.2649C120.256 20.7408 119.74 20.2167 119.208 19.6767C118.835 19.1843 118.462 18.692 118.077 18.1847C117.95 17.8036 117.823 17.4224 117.692 17.0297C117.652 16.4341 117.613 15.8385 117.572 15.2249C117.611 14.5499 117.651 13.875 117.692 13.1795C118.2 12.1631 118.709 11.1466 119.232 10.0994C119.867 9.46411 120.503 8.82884 121.157 8.17431C121.92 7.66609 122.682 7.15786 123.467 6.63424C123.849 6.50719 124.23 6.38013 124.622 6.24922Z" fill="url(#paint6_linear_62_1972)"/>
<path d="M86.8903 6.63402C87.8356 6.45311 87.8356 6.45311 88.8001 6.26855C89.4404 6.38916 90.0807 6.50976 90.7405 6.63402C90.9946 7.39635 91.2487 8.15869 91.5105 8.94412C92.0187 8.30884 92.527 7.67356 93.0506 7.01904C93.4317 6.89198 93.8129 6.76493 94.2056 6.63402C95.095 6.63402 95.9844 6.63402 96.9007 6.63402C97.0357 7.26136 97.1707 7.88869 97.3098 8.53504C97.1073 9.49987 97.1073 9.49987 96.9007 10.4842C96.2972 10.5954 95.6937 10.7065 95.0719 10.8211C94.4049 10.837 93.7378 10.8528 93.0506 10.8692C92.5424 11.3774 92.0341 11.8856 91.5105 12.4093C91.4822 13.2093 91.4539 14.0094 91.4248 14.8337C91.4451 15.7806 91.4655 16.7276 91.4864 17.7032C91.5137 18.6542 91.541 19.6051 91.5692 20.5849C91.4228 21.3174 91.2763 22.05 91.1255 22.8047C90.4297 23.0767 89.7338 23.3487 89.0169 23.6289C88.3151 23.3569 87.6134 23.0849 86.8903 22.8047C86.6873 22.0444 86.6873 22.0444 86.4802 21.2688C86.4344 20.6083 86.3886 19.9479 86.3414 19.2674C86.3376 18.5378 86.3339 17.8082 86.3301 17.0565C86.3482 16.2853 86.3663 15.514 86.385 14.7194C86.3718 13.9481 86.3587 13.1768 86.3451 12.3822C86.3518 11.6526 86.3585 10.923 86.3654 10.1714C86.3722 9.4939 86.379 8.81643 86.386 8.11844C86.5524 7.62858 86.7188 7.13872 86.8903 6.63402Z" fill="url(#paint7_linear_62_1972)"/>
<path d="M53.3939 10.0991C54.5374 10.0991 55.6809 10.0991 56.8591 10.0991C57.6333 10.5398 57.6333 10.5398 58.4232 10.9895C58.9831 11.6922 58.9831 11.6922 59.5542 12.4092C59.6574 13.1001 59.7607 13.7909 59.867 14.5027C59.7638 15.2095 59.6606 15.9162 59.5542 16.6444C59.2445 17.1685 58.9348 17.6926 58.6157 18.2326C58.1631 18.5979 57.7105 18.9632 57.2441 19.3395C56.3746 19.5658 56.3746 19.5658 55.4875 19.7967C54.6417 19.761 54.6417 19.761 53.779 19.7245C53.1437 19.2163 52.5084 18.7081 51.8539 18.1845C51.5998 17.5492 51.3456 16.9139 51.0838 16.2594C51.0362 15.6241 50.9885 14.9888 50.9395 14.3343C50.9871 13.699 51.0347 13.0637 51.0838 12.4092C51.5921 11.7739 52.1003 11.1387 52.6239 10.4841C52.878 10.3571 53.1321 10.23 53.3939 10.0991Z" fill="white"/>
<path d="M124.622 6.24922C125.281 6.20952 125.94 6.16981 126.619 6.12891C127.358 6.16861 128.096 6.20832 128.857 6.24922C129.874 6.75745 130.89 7.26567 131.937 7.78929C132.445 8.17046 132.954 8.55162 133.477 8.94434C133.35 9.45256 133.223 9.96078 133.092 10.4844C132.711 10.8656 132.33 11.2467 131.937 11.6395C130.984 11.4489 130.984 11.4489 130.012 11.2544C130.012 11.0003 130.012 10.7462 130.012 10.4844C129.059 10.2938 129.059 10.2938 128.087 10.0994C127.071 10.0994 126.054 10.0994 125.007 10.0994C124.372 10.6076 123.736 11.1158 123.082 11.6395C122.717 11.0995 122.351 10.5595 121.975 10.0031C121.57 9.09787 121.57 9.09787 121.157 8.17431C121.919 7.66609 122.681 7.15786 123.467 6.63424C123.848 6.50719 124.229 6.38013 124.622 6.24922Z" fill="url(#paint8_linear_62_1972)"/>
<path d="M31.833 15.8744C32.7224 15.8327 33.6118 15.791 34.5281 15.748C35.084 15.75 35.6399 15.752 36.2126 15.7541C36.8002 15.762 37.3878 15.7699 37.9933 15.7781C38.5809 15.7801 39.1685 15.7821 39.774 15.7841C40.6078 15.7901 40.6078 15.7901 41.4584 15.7962C42.3478 15.822 43.2372 15.8478 44.1535 15.8744C44.1535 16.0014 44.1535 16.1285 44.1535 16.2594C43.2959 16.3666 43.2959 16.3666 42.421 16.476C41.8492 16.5316 41.2775 16.5871 40.6884 16.6444C40.8154 17.0256 40.9425 17.4067 41.0734 17.7995C42.4075 17.6089 42.4075 17.6089 43.7685 17.4144C43.7685 17.9227 43.7685 18.4309 43.7685 18.9545C43.3874 19.0816 43.0062 19.2086 42.6135 19.3395C41.9782 19.0854 41.3429 18.8313 40.6884 18.5695C39.9261 18.9507 39.1637 19.3318 38.3783 19.7245C37.2348 19.7245 36.0913 19.7245 34.9131 19.7245C34.2779 19.3434 33.6426 18.9622 32.9881 18.5695C32.6069 18.0613 32.2257 17.5531 31.833 17.0294C31.833 16.6483 31.833 16.2671 31.833 15.8744Z" fill="white"/>
<path d="M104.986 15.1045C106.13 15.1045 107.273 15.1045 108.451 15.1045C108.959 15.2315 109.468 15.3586 109.991 15.4895C109.991 16.3789 109.991 17.2683 109.991 18.1846C109.356 18.6928 108.721 19.2011 108.066 19.7247C107.344 19.7803 106.621 19.8359 105.876 19.8931C105.201 19.8376 104.527 19.782 103.831 19.7247C103.577 19.3435 103.323 18.9624 103.061 18.5696C103.188 17.8073 103.315 17.045 103.446 16.2595C103.954 15.8784 104.462 15.4972 104.986 15.1045Z" fill="white"/>
<path d="M34.1433 9.71436C35.2868 9.71436 36.4303 9.71436 37.6085 9.71436C38.2438 10.0955 38.8791 10.4767 39.5336 10.8694C39.6606 11.6317 39.7877 12.3941 39.9186 13.1795C37.3775 13.1795 34.8364 13.1795 32.2183 13.1795C32.3453 12.5442 32.4724 11.909 32.6033 11.2544C33.1115 10.7462 33.6197 10.238 34.1433 9.71436Z" fill="white"/>
<path d="M104.601 9.71436C105.745 9.71436 106.888 9.71436 108.066 9.71436C108.574 9.96847 109.083 10.2226 109.606 10.4844C109.733 11.2467 109.86 12.0091 109.991 12.7945C109.491 12.8357 108.991 12.8769 108.475 12.9193C107.511 12.9886 107.511 12.9886 106.526 13.0592C105.883 13.1083 105.24 13.1575 104.577 13.2081C103.827 13.1939 103.827 13.1939 103.061 13.1795C103.061 12.7983 103.061 12.4172 103.061 12.0245C102.807 11.7703 102.553 11.5162 102.291 11.2544C102.545 10.8733 102.799 10.4921 103.061 10.0994C103.569 9.97232 104.077 9.84526 104.601 9.71436ZM103.446 11.2544C103.573 11.5085 103.7 11.7626 103.831 12.0245C103.958 11.7703 104.085 11.5162 104.216 11.2544C103.962 11.2544 103.708 11.2544 103.446 11.2544Z" fill="white"/>
<path d="M94.2059 6.63379C95.0953 6.63379 95.9846 6.63379 96.901 6.63379C97.036 7.26907 97.171 7.90434 97.3101 8.55887C97.1076 9.51179 97.1076 9.51179 96.901 10.484C96.2895 10.5792 95.6781 10.6745 95.0481 10.7727C94.389 10.6774 93.7299 10.5821 93.0508 10.484C92.6697 10.2298 92.2885 9.97573 91.8958 9.71392C91.5146 9.71392 91.1334 9.71392 90.7407 9.71392C90.8678 9.2057 90.9948 8.69748 91.1257 8.17386C91.2528 8.42797 91.3799 8.68208 91.5108 8.94389C92.019 8.30861 92.5272 7.67333 93.0508 7.01881C93.432 6.89175 93.8132 6.76469 94.2059 6.63379Z" fill="url(#paint9_linear_62_1972)"/>
<path d="M59.1692 0.473894C60.3141 0.278472 60.3141 0.278472 61.482 0.0791016C62.2435 0.209383 63.0049 0.339665 63.7894 0.473894C63.9645 1.1387 64.1396 1.80351 64.32 2.48846C64.2983 3.40788 64.2765 4.32729 64.2541 5.27457C64.241 6.26471 64.2278 7.25485 64.2143 8.27499C64.1773 9.32171 64.1403 10.3684 64.1022 11.4469C64.0758 13.0169 64.0758 13.0169 64.0488 14.6187C64.0292 15.6089 64.0096 16.599 63.9894 17.6192C63.962 18.5386 63.9347 19.458 63.9064 20.4053C63.8678 21.0701 63.8292 21.7349 63.7894 22.4198C63.6624 22.4198 63.5353 22.4198 63.4044 22.4198C63.4101 21.7667 63.4159 21.1136 63.4218 20.4406C63.4483 19.5373 63.4748 18.634 63.5022 17.7034C63.5208 16.7306 63.5394 15.7579 63.5586 14.7556C63.5894 13.2131 63.5894 13.2131 63.621 11.6394C63.655 10.611 63.689 9.58267 63.724 8.52315C63.7452 7.064 63.7452 7.064 63.7669 5.57537C63.7895 4.67208 63.8121 3.76879 63.8354 2.83814C63.6932 2.18499 63.5509 1.53185 63.4044 0.858911C62.7694 0.726892 62.1344 0.594874 61.4802 0.458854C60.8446 0.590873 60.209 0.722892 59.5542 0.858911C59.4301 1.41478 59.3061 1.97065 59.1782 2.54336C59.2229 3.25805 59.2676 3.97273 59.3136 4.70908C59.3483 5.42376 59.3831 6.13845 59.4189 6.8748C59.4635 7.43066 59.5082 7.98653 59.5542 8.55924C59.046 8.43219 58.5378 8.30513 58.0142 8.17423C58.0142 7.92012 58.0142 7.66601 58.0142 7.40419C58.2683 7.40419 58.5224 7.40419 58.7842 7.40419C58.7832 6.90391 58.7822 6.40363 58.7812 5.88819C58.7663 5.24497 58.7514 4.60175 58.7361 3.93904C58.7113 3.29583 58.6864 2.65261 58.6609 1.9899C58.8286 1.48962 58.9964 0.989335 59.1692 0.473894Z" fill="white"/>
<path d="M107.682 15.4893C108.444 15.4893 109.206 15.4893 109.992 15.4893C109.992 16.3786 109.992 17.268 109.992 18.1844C109.356 18.6926 108.721 19.2008 108.067 19.7244C107.686 19.5974 107.304 19.4703 106.912 19.3394C107.166 19.3394 107.42 19.3394 107.682 19.3394C107.682 18.9583 107.682 18.5771 107.682 18.1844C107.428 18.0573 107.173 17.9303 106.912 17.7994C107.166 17.037 107.42 16.2747 107.682 15.4893Z" fill="white"/>
<path d="M113.842 10.0991C113.969 10.0991 114.096 10.0991 114.227 10.0991C114.275 11.0163 114.323 11.9335 114.373 12.8785C114.385 13.4517 114.398 14.0249 114.411 14.6155C114.422 15.2215 114.432 15.8275 114.443 16.4519C114.468 17.0579 114.492 17.6639 114.516 18.2882C114.525 18.8615 114.533 19.4347 114.541 20.0253C114.437 20.9425 114.334 21.8597 114.227 22.8047C113.21 22.8047 112.194 22.8047 111.147 22.8047C111.02 22.5506 110.893 22.2964 110.762 22.0346C111.016 22.0346 111.27 22.0346 111.532 22.0346C111.786 21.7805 112.04 21.5264 112.302 21.2646C112.81 21.3917 113.318 21.5187 113.842 21.6496C113.837 20.8158 113.833 19.982 113.828 19.1229C113.825 18.0509 113.821 16.9789 113.818 15.8744C113.813 14.8023 113.809 13.7303 113.804 12.6258C113.817 11.792 113.829 10.9582 113.842 10.0991Z" fill="url(#paint10_linear_62_1972)"/>
<path d="M105.756 10.0991C106.773 10.0991 107.789 10.0991 108.836 10.0991C109.091 10.2262 109.345 10.3532 109.607 10.4841C109.734 11.2465 109.861 12.0088 109.992 12.7942C109.102 12.7942 108.213 12.7942 107.296 12.7942C107.169 12.159 107.042 11.5237 106.911 10.8692C106.53 10.615 106.149 10.3609 105.756 10.0991Z" fill="white"/>
<defs>
<linearGradient id="paint0_linear_62_1972" x1="0" y1="12.0398" x2="24.7794" y2="12.0398" gradientUnits="userSpaceOnUse">
<stop stop-color="#2C7BE5"/>
<stop offset="1" stop-color="#00D078"/>
</linearGradient>
<linearGradient id="paint1_linear_62_1972" x1="46.7285" y1="11.824" x2="63.9309" y2="11.824" gradientUnits="userSpaceOnUse">
<stop stop-color="#2C7BE5"/>
<stop offset="1" stop-color="#00D078"/>
</linearGradient>
<linearGradient id="paint2_linear_62_1972" x1="99.2109" y1="14.8636" x2="114.541" y2="14.8636" gradientUnits="userSpaceOnUse">
<stop stop-color="#2C7BE5"/>
<stop offset="1" stop-color="#00D078"/>
</linearGradient>
<linearGradient id="paint3_linear_62_1972" x1="27.4053" y1="14.8036" x2="44.1535" y2="14.8036" gradientUnits="userSpaceOnUse">
<stop stop-color="#2C7BE5"/>
<stop offset="1" stop-color="#00D078"/>
</linearGradient>
<linearGradient id="paint4_linear_62_1972" x1="136.364" y1="11.6498" x2="153.113" y2="11.6498" gradientUnits="userSpaceOnUse">
<stop stop-color="#2C7BE5"/>
<stop offset="1" stop-color="#00D078"/>
</linearGradient>
<linearGradient id="paint5_linear_62_1972" x1="65.6191" y1="12.0031" x2="85.049" y2="12.0031" gradientUnits="userSpaceOnUse">
<stop stop-color="#2C7BE5"/>
<stop offset="1" stop-color="#00D078"/>
</linearGradient>
<linearGradient id="paint6_linear_62_1972" x1="117.572" y1="14.7557" x2="133.863" y2="14.7557" gradientUnits="userSpaceOnUse">
<stop stop-color="#2C7BE5"/>
<stop offset="1" stop-color="#00D078"/>
</linearGradient>
<linearGradient id="paint7_linear_62_1972" x1="86.3301" y1="14.9487" x2="97.3098" y2="14.9487" gradientUnits="userSpaceOnUse">
<stop stop-color="#2C7BE5"/>
<stop offset="1" stop-color="#00D078"/>
</linearGradient>
<linearGradient id="paint8_linear_62_1972" x1="121.157" y1="8.88418" x2="133.477" y2="8.88418" gradientUnits="userSpaceOnUse">
<stop stop-color="#2C7BE5"/>
<stop offset="1" stop-color="#00D078"/>
</linearGradient>
<linearGradient id="paint9_linear_62_1972" x1="90.7407" y1="8.70325" x2="97.3101" y2="8.70325" gradientUnits="userSpaceOnUse">
<stop stop-color="#2C7BE5"/>
<stop offset="1" stop-color="#00D078"/>
</linearGradient>
<linearGradient id="paint10_linear_62_1972" x1="110.762" y1="16.4519" x2="114.541" y2="16.4519" gradientUnits="userSpaceOnUse">
<stop stop-color="#2C7BE5"/>
<stop offset="1" stop-color="#00D078"/>
</linearGradient>
</defs>
</svg>
