<svg width="129" height="123" viewBox="0 0 129 123" fill="none" xmlns="http://www.w3.org/2000/svg">
<path d="M83.8996 23.6487C85.6683 20.0597 84.2013 15.6607 80.3945 14.4288C71.7849 11.6427 62.533 11.2315 53.6328 13.3093C42.3679 15.9392 32.3634 22.3936 25.3239 31.5729C18.2845 40.7521 14.6456 52.0883 15.0272 63.6497C15.4089 75.2112 19.7875 86.2826 27.4171 94.9776C35.0466 103.673 45.455 109.453 56.8688 111.334C68.2826 113.216 79.9955 111.081 90.0119 105.294C100.028 99.5077 107.728 90.4271 111.8 79.5996C115.017 71.045 115.812 61.8181 114.169 52.9194C113.442 48.9848 109.271 46.9584 105.482 48.2456C101.694 49.5328 99.7473 53.6548 100.24 57.6255C100.944 63.2941 100.274 69.0863 98.238 74.4994C95.3462 82.1892 89.8775 88.6384 82.7637 92.7482C75.65 96.8579 67.3313 98.3739 59.2251 97.0378C51.1189 95.7018 43.7268 91.5964 38.3082 85.4211C32.8896 79.2458 29.7798 71.3827 29.5088 63.1716C29.2377 54.9606 31.8221 46.9095 36.8216 40.3903C41.8211 33.8711 48.9264 29.2871 56.9269 27.4193C62.5587 26.1045 68.3888 26.193 73.9179 27.6274C77.7909 28.6322 82.1309 27.2378 83.8996 23.6487Z" fill="url(#paint0_linear_1_1240)"/>
<defs>
<linearGradient id="paint0_linear_1_1240" x1="65.4237" y1="19.6772" x2="115" y2="35" gradientUnits="userSpaceOnUse">
<stop offset="0.230621" stop-color="#4591F5"/>
<stop offset="0.580929" stop-color="#9DC5FA"/>
<stop offset="0.888116" stop-color="#ECF1F8"/>
</linearGradient>
</defs>
</svg>
